<svg width="684" height="491" viewBox="0 0 684 491" fill="none" xmlns="http://www.w3.org/2000/svg">
<g clip-path="url(#clip0)">
<path opacity="0.22" d="M107.29 9.57001L0 58.57L1.22 264.07L107.06 210.76L107.29 9.57001Z" fill="url(#paint0_linear)"/>
<path opacity="0.19" d="M242.51 76.71L107.29 3.39999V209.9L242.51 277.83V76.71Z" fill="url(#paint1_linear)"/>
<path opacity="0.48" d="M136.98 489.43L1.21997 427.63V264.07L136.98 325.87V489.43Z" fill="url(#paint2_linear)" stroke="#009CE1" stroke-miterlimit="10"/>
<path opacity="0.31" d="M243.05 447L107.29 381.98V209.9L243.05 274.91V447Z" fill="url(#paint3_linear)"/>
<path d="M243.27 273.22L107.06 209.76L1.21997 264.07L137.21 325.82L243.27 273.22Z" fill="url(#paint4_linear)" stroke="#009CE1" stroke-miterlimit="10"/>
<path d="M239.303 315.591C240.167 315.591 240.914 315.905 241.543 316.534C242.171 317.163 242.486 317.909 242.486 318.774V336.693C242.486 337.558 242.171 338.304 241.543 338.933C240.914 339.562 240.167 339.876 239.303 339.876H205.586V348.6H236.945C237.809 348.6 238.556 348.915 239.185 349.543C239.814 350.172 240.128 350.919 240.128 351.783V369.585C240.128 370.449 239.814 371.196 239.185 371.825C238.556 372.454 237.809 372.768 236.945 372.768H205.586V394.931C205.586 395.796 205.272 396.543 204.643 397.171C204.014 397.8 203.267 398.115 202.403 398.115H179.886C179.021 398.115 178.274 397.8 177.646 397.171C177.017 396.543 176.703 395.796 176.703 394.931V318.774C176.703 317.909 177.017 317.163 177.646 316.534C178.274 315.905 179.021 315.591 179.886 315.591H239.303Z" fill="#616160"/>
<path d="M248.438 380.549C248.438 377.719 249.027 375.204 250.206 373.004C251.463 370.724 253.192 368.76 255.393 367.109C257.672 365.459 260.384 364.083 263.528 362.983C266.75 361.804 270.326 360.861 274.256 360.154L286.752 358.149C286.752 356.027 286.556 354.495 286.163 353.552C285.848 352.608 284.866 352.137 283.215 352.137C282.194 352.137 281.368 352.333 280.74 352.726C280.111 353.119 279.522 353.552 278.971 354.023C278.5 354.495 277.95 354.927 277.321 355.32C276.771 355.713 276.024 355.909 275.081 355.909H255.039C254.253 355.909 253.585 355.674 253.035 355.202C252.564 354.731 252.367 354.102 252.446 353.316C252.524 351.823 253.153 350.054 254.332 348.011C255.511 345.967 257.319 344.042 259.755 342.234C262.27 340.426 265.453 338.894 269.304 337.636C273.234 336.3 277.95 335.632 283.451 335.632C294.219 335.632 302.157 337.872 307.265 342.352C312.452 346.753 315.046 353.001 315.046 361.097V394.931C315.046 395.796 314.732 396.543 314.103 397.171C313.474 397.8 312.728 398.115 311.863 398.115H291.232C290.368 398.115 289.621 397.8 288.992 397.171C288.363 396.543 288.049 395.796 288.049 394.931V391.63C286.32 393.988 284.001 395.875 281.093 397.289C278.264 398.625 275.002 399.293 271.308 399.293C267.929 399.293 264.824 398.822 261.995 397.879C259.166 396.936 256.729 395.639 254.686 393.988C252.721 392.259 251.188 390.255 250.088 387.976C248.988 385.697 248.438 383.221 248.438 380.549ZM279.443 381.846C281.722 381.846 283.569 381.138 284.984 379.723C286.399 378.23 287.106 375.872 287.106 372.65L280.15 374.183C278.107 374.654 276.731 375.283 276.024 376.069C275.317 376.855 274.963 377.68 274.963 378.545C274.963 379.409 275.317 380.195 276.024 380.902C276.81 381.531 277.95 381.846 279.443 381.846ZM357.377 381.02C357.377 380.549 357.259 380.077 357.024 379.606C356.866 379.134 356.395 378.702 355.609 378.309C354.823 377.837 353.605 377.405 351.954 377.012C350.304 376.54 348.025 376.03 345.117 375.479C342.366 375.008 339.694 374.3 337.1 373.357C334.506 372.336 332.188 371.078 330.144 369.585C328.18 368.013 326.568 366.087 325.311 363.808C324.132 361.529 323.543 358.857 323.543 355.792C323.543 353.277 324.171 350.801 325.429 348.364C326.765 345.928 328.69 343.767 331.205 341.88C333.72 339.994 336.825 338.501 340.519 337.4C344.213 336.222 348.496 335.632 353.369 335.632C358.242 335.632 362.565 336.222 366.337 337.4C370.11 338.501 373.293 339.916 375.886 341.645C378.558 343.295 380.602 345.103 382.017 347.068C383.431 349.032 384.178 350.84 384.257 352.491C384.335 353.355 384.099 354.102 383.549 354.731C382.999 355.359 382.37 355.674 381.663 355.674H361.857C360.993 355.674 360.207 355.516 359.499 355.202C358.871 354.809 358.203 354.377 357.495 353.905C356.866 353.434 356.198 353.041 355.491 352.726C354.862 352.333 354.116 352.137 353.251 352.137C352.622 352.137 352.072 352.333 351.601 352.726C351.129 353.041 350.893 353.473 350.893 354.023C350.893 354.495 350.972 354.966 351.129 355.438C351.365 355.909 351.915 356.342 352.78 356.735C353.644 357.128 354.941 357.521 356.67 357.914C358.399 358.307 360.796 358.739 363.861 359.21C368.105 359.839 371.681 360.861 374.589 362.276C377.497 363.612 379.855 365.223 381.663 367.109C383.549 368.917 384.885 370.882 385.671 373.004C386.457 375.047 386.85 377.051 386.85 379.016C386.85 385.382 384.021 390.373 378.362 393.988C372.703 397.525 364.529 399.293 353.841 399.293C348.182 399.293 343.348 398.704 339.34 397.525C335.41 396.346 332.188 394.931 329.673 393.281C327.236 391.552 325.429 389.705 324.25 387.74C323.071 385.775 322.442 384.007 322.364 382.435C322.285 381.57 322.521 380.824 323.071 380.195C323.621 379.566 324.328 379.252 325.193 379.252H345.706C346.571 379.252 347.317 379.448 347.946 379.841C348.653 380.156 349.321 380.549 349.95 381.02C350.658 381.492 351.365 381.924 352.072 382.317C352.858 382.631 353.723 382.789 354.666 382.789C355.295 382.789 355.884 382.671 356.434 382.435C357.063 382.121 357.377 381.649 357.377 381.02ZM429.637 370.41C429.637 372.218 430.03 373.672 430.816 374.772C431.602 375.794 432.899 376.305 434.707 376.305H445.435C446.299 376.305 447.046 376.619 447.675 377.248C448.303 377.877 448.618 378.623 448.618 379.488V394.931C448.618 395.796 448.303 396.543 447.675 397.171C447.046 397.8 446.299 398.115 445.435 398.115H432.113C427.869 398.115 423.939 397.722 420.324 396.936C416.709 396.071 413.565 394.656 410.893 392.692C408.299 390.727 406.256 388.133 404.762 384.911C403.348 381.688 402.64 377.641 402.64 372.768V357.442H393.327C392.462 357.442 391.716 357.128 391.087 356.499C390.458 355.87 390.144 355.123 390.144 354.259V339.994C390.144 339.13 390.458 338.383 391.087 337.754C391.716 337.125 392.462 336.811 393.327 336.811H402.64V317.595C402.64 316.73 402.955 315.984 403.583 315.355C404.212 314.726 404.959 314.412 405.823 314.412H426.454C427.319 314.412 428.065 314.726 428.694 315.355C429.323 315.984 429.637 316.73 429.637 317.595V336.811H444.492C445.356 336.811 446.103 337.125 446.732 337.754C447.36 338.383 447.675 339.13 447.675 339.994V354.259C447.675 355.123 447.36 355.87 446.732 356.499C446.103 357.128 445.356 357.442 444.492 357.442H429.637V370.41ZM522.68 375.126C523.545 375.126 524.291 375.44 524.92 376.069C525.549 376.698 525.863 377.444 525.863 378.309V394.931C525.863 395.796 525.549 396.543 524.92 397.171C524.291 397.8 523.545 398.115 522.68 398.115H461.259C460.394 398.115 459.648 397.8 459.019 397.171C458.39 396.543 458.076 395.796 458.076 394.931V318.774C458.076 317.909 458.39 317.163 459.019 316.534C459.648 315.905 460.394 315.591 461.259 315.591H521.737C522.602 315.591 523.348 315.905 523.977 316.534C524.606 317.163 524.92 317.909 524.92 318.774V335.396C524.92 336.261 524.606 337.008 523.977 337.636C523.348 338.265 522.602 338.579 521.737 338.579H486.37V346.007H519.143C520.008 346.007 520.755 346.321 521.383 346.95C522.012 347.578 522.327 348.325 522.327 349.19V364.515C522.327 365.38 522.012 366.127 521.383 366.755C520.755 367.384 520.008 367.699 519.143 367.699H486.37V375.126H522.68ZM584.101 366.402L603.553 393.753C603.867 394.145 604.024 394.656 604.024 395.285C604.024 396.071 603.749 396.739 603.199 397.289C602.649 397.839 601.981 398.115 601.195 398.115H578.56C577.459 398.115 576.673 397.879 576.202 397.407C575.73 396.936 575.337 396.503 575.023 396.11L567.242 384.675L559.108 396.11C558.872 396.503 558.479 396.936 557.929 397.407C557.457 397.879 556.671 398.115 555.571 398.115H533.525C532.739 398.115 532.071 397.839 531.521 397.289C530.971 396.739 530.696 396.071 530.696 395.285C530.696 395.128 530.735 394.892 530.814 394.578C530.892 394.263 531.01 393.988 531.167 393.753L550.266 366.52L533.29 341.173C532.975 340.701 532.818 340.191 532.818 339.64C532.818 338.854 533.093 338.186 533.643 337.636C534.193 337.086 534.861 336.811 535.647 336.811H557.221C558.4 336.811 559.265 337.086 559.815 337.636C560.365 338.186 560.758 338.658 560.994 339.051L567.832 349.543L574.669 339.051C574.905 338.658 575.298 338.186 575.848 337.636C576.398 337.086 577.263 336.811 578.442 336.811H599.073C599.859 336.811 600.527 337.086 601.077 337.636C601.627 338.186 601.902 338.815 601.902 339.523C601.902 340.151 601.745 340.701 601.431 341.173L584.101 366.402ZM653.643 399.293C650.342 399.293 647.355 398.743 644.683 397.643C642.011 396.543 639.771 394.735 637.963 392.22V417.331C637.963 418.195 637.649 418.942 637.02 419.571C636.391 420.199 635.645 420.514 634.78 420.514H612.97C612.106 420.514 611.359 420.199 610.73 419.571C610.101 418.942 609.787 418.195 609.787 417.331V339.994C609.787 339.13 610.101 338.383 610.73 337.754C611.359 337.125 612.106 336.811 612.97 336.811H633.012C633.876 336.811 634.623 337.125 635.252 337.754C635.88 338.383 636.195 339.13 636.195 339.994V343.531C638.002 341.252 640.321 339.365 643.15 337.872C646.058 336.379 649.556 335.632 653.643 335.632C657.022 335.632 660.205 336.143 663.192 337.165C666.178 338.108 668.772 339.68 670.973 341.88C673.173 344.081 674.942 346.91 676.278 350.369C677.614 353.748 678.4 357.914 678.636 362.865C678.714 364.673 678.753 366.245 678.753 367.581C678.753 368.838 678.714 370.371 678.636 372.178C678.478 376.815 677.732 380.824 676.396 384.203C675.06 387.583 673.252 390.412 670.973 392.692C668.772 394.892 666.178 396.543 663.192 397.643C660.205 398.743 657.022 399.293 653.643 399.293ZM649.752 371.353C649.909 370.174 649.988 368.877 649.988 367.463C649.988 366.048 649.909 364.751 649.752 363.572C649.516 361.45 649.006 359.8 648.22 358.621C647.512 357.363 646.058 356.735 643.858 356.735C641.657 356.735 640.164 357.363 639.378 358.621C638.592 359.8 638.12 361.45 637.963 363.572C637.806 365.38 637.727 366.834 637.727 367.934C637.727 369.035 637.806 370.489 637.963 372.296C638.12 374.183 638.631 375.637 639.496 376.658C640.36 377.68 641.814 378.191 643.858 378.191C646.058 378.191 647.512 377.601 648.22 376.423C649.006 375.165 649.516 373.475 649.752 371.353Z" fill="#7C7C7C"/>
</g>
<defs>
<linearGradient id="paint0_linear" x1="102.502" y1="217.751" x2="22.9207" y2="84.2555" gradientUnits="userSpaceOnUse">
<stop stop-color="#2581C4"/>
<stop offset="1" stop-color="#2581C4" stop-opacity="0"/>
</linearGradient>
<linearGradient id="paint1_linear" x1="139.877" y1="235.292" x2="228.789" y2="-5.0856" gradientUnits="userSpaceOnUse">
<stop stop-color="#2581C4"/>
<stop offset="0.662" stop-color="#2581C4" stop-opacity="0.0419"/>
<stop offset="1" stop-color="#2581C4" stop-opacity="0"/>
</linearGradient>
<linearGradient id="paint2_linear" x1="1.22407" y1="376.749" x2="136.983" y2="376.749" gradientUnits="userSpaceOnUse">
<stop stop-color="#312783"/>
<stop offset="0.9612" stop-color="#E6007E"/>
</linearGradient>
<linearGradient id="paint3_linear" x1="107.288" y1="328.448" x2="243.047" y2="328.448" gradientUnits="userSpaceOnUse">
<stop stop-color="#D3007F"/>
<stop offset="0.9612" stop-color="#36A9E1"/>
</linearGradient>
<linearGradient id="paint4_linear" x1="1.22407" y1="267.79" x2="243.271" y2="267.79" gradientUnits="userSpaceOnUse">
<stop stop-color="#D3007F" stop-opacity="0.43"/>
<stop offset="0.9612" stop-color="#36A9E1"/>
</linearGradient>
<clipPath id="clip0">
<rect width="683.06" height="490.37" fill="white"/>
</clipPath>
</defs>
</svg>
